<svg width="99" height="24" viewBox="0 0 99 24" fill="none" xmlns="http://www.w3.org/2000/svg">
<g clip-path="url(#clip0_23_403)">
<path d="M25.9659 8.44944H35.9703V10.2826H32.0372V20.5899H29.8729V10.2826H25.9567V8.44873H25.9652L25.9659 8.44944ZM35.5433 11.7988H37.3927V13.4958H37.4273C37.4887 13.2558 37.6016 13.0243 37.7675 12.8012C38.1222 12.3231 38.6023 11.9525 39.1546 11.7304C39.4351 11.6192 39.7338 11.5611 40.0355 11.5588C40.2614 11.5588 40.428 11.5673 40.5155 11.5765C40.6023 11.585 40.6892 11.6019 40.7852 11.6104V13.4781C40.6435 13.4534 40.5011 13.4334 40.3581 13.4181C40.2161 13.4013 40.0733 13.3929 39.9303 13.3927C39.5986 13.3927 39.2852 13.4612 38.9887 13.5904C38.6922 13.7181 38.4388 13.9151 38.2214 14.1643C37.9894 14.4429 37.8118 14.7625 37.6976 15.1066C37.567 15.4836 37.5056 15.9113 37.5056 16.4005V20.5814H35.5348V11.7988H35.5433ZM49.848 20.5906H47.9118V19.3652H47.8765C47.6322 19.8113 47.275 20.1628 46.795 20.4283C46.315 20.6937 45.8266 20.8306 45.3296 20.8306C44.1522 20.8306 43.2967 20.5483 42.7743 19.9737C42.2506 19.3998 41.9887 18.5344 41.9887 17.3774V11.7996H43.9602V17.189C43.9602 17.9605 44.1085 18.509 44.4141 18.8259C44.7106 19.1428 45.1376 19.3059 45.6783 19.3059C46.0969 19.3059 46.4372 19.2459 46.716 19.1167C46.9955 18.9883 47.2221 18.8259 47.388 18.6113C47.5623 18.4059 47.6845 18.149 47.7635 17.8574C47.8412 17.5659 47.8765 17.249 47.8765 16.9066V11.808H49.848V20.5906ZM53.2059 17.772C53.2673 18.3367 53.4847 18.732 53.8602 18.9628C54.2435 19.1859 54.6974 19.3059 55.2296 19.3059C55.4132 19.3059 55.6221 19.2883 55.8579 19.2628C56.0929 19.2367 56.3195 19.1767 56.5207 19.1005C56.7296 19.0228 56.8948 18.9028 57.0346 18.749C57.1659 18.5937 57.2266 18.3974 57.2181 18.149C57.217 18.0336 57.1916 17.9199 57.1435 17.815C57.0955 17.7102 57.0259 17.6166 56.9393 17.5405C56.7642 17.3781 56.5468 17.2581 56.2758 17.1551C55.9738 17.0505 55.6648 16.9674 55.3511 16.9066C55.0023 16.8381 54.6536 16.7605 54.2965 16.6836C53.9366 16.6057 53.5813 16.5084 53.232 16.392C52.9044 16.287 52.5954 16.131 52.3165 15.9297C52.0446 15.74 51.823 15.4871 51.6706 15.1927C51.5054 14.8927 51.4263 14.5243 51.4263 14.0788C51.4263 13.5988 51.5485 13.205 51.7842 12.8788C52.022 12.5555 52.329 12.2892 52.6828 12.0996C53.063 11.8986 53.4718 11.7569 53.8948 11.6796C54.3395 11.6026 54.7673 11.5596 55.1682 11.5596C55.6306 11.5596 56.0753 11.6111 56.4946 11.7057C56.9005 11.7926 57.2874 11.9521 57.6367 12.1765C57.9769 12.3911 58.2558 12.6734 58.483 13.0165C58.7096 13.3588 58.8494 13.7788 58.9101 14.2673H56.8518C56.7558 13.805 56.5461 13.488 56.2066 13.3334C55.8663 13.1711 55.4739 13.0934 55.0376 13.0934C54.8979 13.0934 54.732 13.1019 54.5407 13.128C54.3564 13.1525 54.175 13.1956 53.9993 13.2565C53.8387 13.3156 53.693 13.4091 53.5722 13.5304C53.5136 13.5937 53.468 13.6679 53.4381 13.7488C53.4082 13.8297 53.3945 13.9157 53.3979 14.0019C53.3979 14.2419 53.4847 14.4304 53.6506 14.5758C53.8165 14.7212 54.0346 14.8412 54.3049 14.9443C54.5753 15.0388 54.8809 15.1243 55.2296 15.1927C55.5783 15.2612 55.9355 15.3381 56.3026 15.4158C56.6598 15.4927 57.0085 15.5958 57.3579 15.7066C57.7066 15.8181 58.0115 15.9727 58.2826 16.1697C58.5529 16.3666 58.771 16.6066 58.9362 16.8981C59.1021 17.189 59.1896 17.5574 59.1896 17.9859C59.1896 18.5083 59.0675 18.9459 58.8226 19.3144C58.5791 19.6744 58.2649 19.9737 57.8809 20.1967C57.4789 20.4283 57.0434 20.5959 56.5899 20.6937C56.1285 20.7952 55.6576 20.8468 55.1852 20.8476C54.6561 20.8535 54.1286 20.7901 53.616 20.6591C53.136 20.5306 52.7174 20.3421 52.3687 20.0944C52.0241 19.844 51.7407 19.5186 51.54 19.1428C51.3395 18.7659 51.2343 18.3113 51.2174 17.789H53.2059V17.772ZM59.7127 11.8003H61.2042V9.16026H63.1758V11.8003H64.9546V13.2473H63.1765V17.9436C63.1765 18.1483 63.1849 18.3205 63.2026 18.4744C63.2195 18.6205 63.2633 18.749 63.3247 18.8513C63.3914 18.9589 63.4927 19.0405 63.612 19.0828C63.7433 19.1344 63.9085 19.1605 64.1358 19.1605C64.2748 19.1605 64.4146 19.1605 64.5543 19.1513C64.6941 19.1428 64.8332 19.1259 64.9729 19.0913V20.5906C64.7548 20.6167 64.5367 20.6337 64.3362 20.6591C64.1249 20.6836 63.9123 20.6952 63.6995 20.6937C63.1765 20.6937 62.7579 20.6421 62.4431 20.5483C62.1296 20.4537 61.8762 20.3083 61.7019 20.1198C61.5183 19.9313 61.4054 19.6998 61.3355 19.4167C61.2676 19.0984 61.2298 18.7744 61.2226 18.449V13.2636H59.7311V11.7981H59.7134L59.7127 11.8003ZM66.3501 11.8003H68.2172V12.9904H68.2525C68.5306 12.4765 68.9146 12.1165 69.4115 11.8941C69.9195 11.6683 70.47 11.5542 71.0259 11.5596C71.7318 11.5596 72.3423 11.6796 72.8661 11.928C73.3892 12.168 73.8254 12.5026 74.1741 12.9304C74.5228 13.3588 74.7762 13.8558 74.9506 14.4219C75.1282 15.0108 75.2165 15.623 75.2125 16.2381C75.2125 16.829 75.1341 17.4028 74.9767 17.952C74.8321 18.4817 74.5927 18.9809 74.2701 19.4252C73.9531 19.8535 73.5411 20.2027 73.0666 20.4452C72.5781 20.7021 72.0113 20.8306 71.3485 20.8306C71.0587 20.8303 70.7696 20.8043 70.4845 20.753C70.2 20.7017 69.9223 20.6186 69.6565 20.5052C69.3924 20.395 69.1454 20.2476 68.923 20.0676C68.7036 19.8925 68.5124 19.6846 68.3562 19.4513H68.3209V23.8384H66.3501V11.7988V11.8003ZM73.2409 16.2036C73.2413 15.8128 73.1886 15.4239 73.0842 15.0473C72.9876 14.6906 72.8279 14.354 72.6127 14.0534C72.4085 13.7675 72.1436 13.5303 71.8369 13.3588C71.5076 13.1809 71.1384 13.0895 70.764 13.0934C69.9353 13.0934 69.3071 13.3758 68.8885 13.9419C68.4699 14.5073 68.2602 15.2619 68.2602 16.2036C68.2602 16.649 68.3132 17.0605 68.4261 17.4374C68.539 17.8144 68.6965 18.1405 68.923 18.4144C69.1419 18.689 69.403 18.9028 69.7087 19.0567C70.0136 19.2198 70.3715 19.2967 70.7725 19.2967C71.2263 19.2967 71.6012 19.2028 71.9153 19.0228C72.2195 18.8478 72.4814 18.6081 72.6826 18.3205C72.8831 18.029 73.032 17.7028 73.1188 17.3351C73.1991 16.9632 73.24 16.584 73.2409 16.2036ZM76.7209 8.44944H78.6925V10.2833H76.7209V8.44944ZM76.7209 11.7996H78.6925V20.5906H76.7209V11.7996ZM80.4543 8.44944H82.4259V20.5906H80.4543V8.44944ZM88.4703 20.8306C87.7546 20.8306 87.1179 20.7106 86.5602 20.4798C86.0256 20.2605 85.5417 19.9338 85.1386 19.5198C84.7466 19.0975 84.4464 18.5985 84.2569 18.0544C84.0494 17.4538 83.9463 16.822 83.952 16.1866C83.952 15.5181 84.0565 14.9019 84.2569 14.3358C84.4465 13.7919 84.7467 13.2932 85.1386 12.8711C85.5219 12.4596 86.0019 12.1426 86.5602 11.9111C87.1179 11.6796 87.7546 11.5596 88.4703 11.5596C89.1854 11.5596 89.8221 11.6796 90.3805 11.9111C90.9388 12.1426 91.4096 12.4687 91.8021 12.8711C92.194 13.2931 92.4939 13.7918 92.683 14.3358C92.8835 14.9012 92.988 15.5181 92.988 16.1866C92.988 16.8643 92.8835 17.489 92.683 18.0544C92.4941 18.5986 92.1941 19.0976 91.8021 19.5198C91.4181 19.9313 90.9388 20.2483 90.3805 20.4798C89.8221 20.7106 89.1854 20.8306 88.4703 20.8306ZM88.4703 19.2967C88.9066 19.2967 89.2899 19.2028 89.6125 19.0228C89.9269 18.8478 90.1982 18.6047 90.4066 18.3113C90.6155 18.0205 90.7638 17.6859 90.8689 17.3174C90.9649 16.949 91.0172 16.572 91.0172 16.1866C91.0172 15.8097 90.9649 15.4412 90.8689 15.0643C90.779 14.7067 90.6222 14.3695 90.4066 14.0704C90.1978 13.7798 89.9264 13.5397 89.6125 13.368C89.2899 13.188 88.9066 13.0934 88.4703 13.0934C88.0341 13.0934 87.6501 13.188 87.3275 13.368C87.0156 13.5424 86.745 13.7819 86.5341 14.0704C86.3216 14.3712 86.165 14.7079 86.0718 15.0643C85.9751 15.4306 85.9251 15.8077 85.9228 16.1866C85.9228 16.572 85.9758 16.949 86.0718 17.3174C86.1678 17.6859 86.3245 18.0205 86.5341 18.3113C86.743 18.6028 87.0049 18.8428 87.3275 19.0228C87.6501 19.2113 88.0341 19.2967 88.4703 19.2967ZM93.564 11.8003H95.0555V9.16026H97.027V11.8003H98.8059V13.2473H97.027V17.9436C97.027 18.1483 97.0355 18.3205 97.0525 18.4744C97.0701 18.6205 97.1139 18.749 97.1753 18.8513C97.2419 18.959 97.3432 19.0407 97.4626 19.0828C97.5939 19.1344 97.759 19.1605 97.9863 19.1605C98.1254 19.1605 98.2652 19.1605 98.4049 19.1513C98.5447 19.1428 98.6838 19.1259 98.8235 19.0913V20.5906C98.6054 20.6167 98.3873 20.6337 98.1868 20.6591C97.9755 20.6836 97.7628 20.6952 97.5501 20.6937C97.027 20.6937 96.6078 20.6421 96.2936 20.5483C95.9802 20.4537 95.7268 20.3083 95.5525 20.1198C95.3696 19.9313 95.256 19.6998 95.1861 19.4167C95.1183 19.0984 95.0805 18.7744 95.0732 18.449V13.2636H93.5816V11.7981H93.564V11.8003Z" fill="white"/>
<path d="M23.6633 8.44871H14.6273L11.8362 0L9.03529 8.44941L0 8.44024L7.31788 13.6666L4.51835 22.1061L11.8362 16.8882L19.1456 22.1061L16.3546 13.6666L23.6633 8.44871Z" fill="#04DA8D"/>
<path d="M16.9821 15.5781L16.3539 13.6672L11.8362 16.8889L16.9821 15.5781Z" fill="#126849"/>
</g>
<defs>
<clipPath id="clip0_23_403">
<rect width="98.8235" height="24" fill="white"/>
</clipPath>
</defs>
</svg>
