<svg width="12" height="12" viewBox="0 0 12 12" fill="none" xmlns="http://www.w3.org/2000/svg">
<path d="M5.62067 0.288785C5.74007 -0.0962612 6.25993 -0.0962618 6.37933 0.288784L7.52231 3.97481C7.5757 4.14701 7.72884 4.2636 7.90164 4.2636H11.6004C11.9868 4.2636 12.1474 4.78167 11.8348 5.01964L8.84247 7.29773C8.70268 7.40416 8.64419 7.5928 8.69758 7.765L9.84056 11.451C9.95995 11.8361 9.53938 12.1563 9.22679 11.9183L6.23444 9.6402C6.09465 9.53377 5.90535 9.53377 5.76556 9.6402L2.77321 11.9183C2.46063 12.1563 2.04005 11.8361 2.15944 11.451L3.30242 7.765C3.35581 7.5928 3.29732 7.40416 3.15753 7.29773L0.165176 5.01964C-0.147408 4.78167 0.013239 4.2636 0.399614 4.2636H4.09836C4.27116 4.2636 4.4243 4.14701 4.47769 3.97481L5.62067 0.288785Z" fill="white"/>
</svg>
