<svg width="24" height="25" viewBox="0 0 24 25" fill="none" xmlns="http://www.w3.org/2000/svg">
<path d="M15.09 21.17C15.28 21.17 15.47 21.1 15.62 20.95C15.91 20.66 15.91 20.18 15.62 19.89L9.10002 13.37C8.62002 12.89 8.62002 12.11 9.10002 11.63L15.62 5.11002C15.91 4.82002 15.91 4.34002 15.62 4.05002C15.33 3.76002 14.85 3.76002 14.56 4.05002L8.04002 10.57C7.53002 11.08 7.24002 11.77 7.24002 12.5C7.24002 13.23 7.52002 13.92 8.04002 14.43L14.56 20.95C14.71 21.09 14.9 21.17 15.09 21.17Z" fill="white"/>
</svg>
