<svg width="20" height="20" viewBox="0 0 20 20" fill="none" xmlns="http://www.w3.org/2000/svg">
<path d="M18.3333 9.37499H16.6333C16.3333 6.19999 13.8 3.65832 10.625 3.36666V1.66666C10.625 1.32499 10.3417 1.04166 9.99999 1.04166C9.65832 1.04166 9.37499 1.32499 9.37499 1.66666V3.36666C6.19999 3.66666 3.65832 6.19999 3.36666 9.37499H1.66666C1.32499 9.37499 1.04166 9.65832 1.04166 9.99999C1.04166 10.3417 1.32499 10.625 1.66666 10.625H3.36666C3.66666 13.8 6.19999 16.3417 9.37499 16.6333V18.3333C9.37499 18.675 9.65832 18.9583 9.99999 18.9583C10.3417 18.9583 10.625 18.675 10.625 18.3333V16.6333C13.8 16.3333 16.3417 13.8 16.6333 10.625H18.3333C18.675 10.625 18.9583 10.3417 18.9583 9.99999C18.9583 9.65832 18.675 9.37499 18.3333 9.37499ZM9.99999 12.6C8.56666 12.6 7.39999 11.4333 7.39999 9.99999C7.39999 8.56666 8.56666 7.39999 9.99999 7.39999C11.4333 7.39999 12.6 8.56666 12.6 9.99999C12.6 11.4333 11.4333 12.6 9.99999 12.6Z" fill="#221F1B"/>
</svg>
